# xmcd
#
# Track frame offsets:
#	150
#	16017
#	33680
#	50330
#	64732
#	84605
#	100550
#	114162
#	130015
#	144162
#	159537
#	173385
#	189570
#	201555
#	218997
#	236062
#	252422
#	269112
#	289015
#
# Disc length: 4100
#
# Revision: 3
# Processed by: cddbd v1.5.1PL0 Copyright (c) Steve Scherf et al.
# Submitted via: CDex 1.50beta9
# Normalized: r2:TDELIM( - )
#
DISCID=0d100213
DTITLE=Various Artist - CDX Volume 173 - Oct 1997
DYEAR=1997
DGENRE=Country
TTITLE0=The Thompson Brothers Band - Drive Me Crazy
TTITLE1=Emilio - Forever Seventeen
TTITLE2=Rodney Atkins - God Only Knows
TTITLE3=David Lee Murphy - Just Don't Wait Around Til She's Leavin'
TTITLE4=Sammy Kershaw - Love Of My Life
TTITLE5=Lorrie Morgan - One Of Those Nights Tonight
TTITLE6=Ricky Van Shelton - Our Love
TTITLE7=The Kinleys - Please
TTITLE8=Mark Collie - Rapid Boy
TTITLE9=Travis Tritt - Still In Love With You
TTITLE10=Jason Sellers - That Does It
TTITLE11=Wade Hayes - The Day She Left Tulsa (In A Chevy)
TTITLE12=Chris Cummings - The Kind Of Heart That Breaks
TTITLE13=Jim Collins - The Next Step
TTITLE14=Blake and Brian - The Wish
TTITLE15=Brad Hawkins - We Lose
TTITLE16=Kris Tyler - What A Woman Knows
TTITLE17=Anita Cochran and Steve Wariner - What If I Said
TTITLE18=The Bullock Sisters - A Heart Divided
EXTD=YEAR: 1997
EXTT0=
EXTT1=
EXTT2=
EXTT3=
EXTT4=
EXTT5=
EXTT6=
EXTT7=
EXTT8=
EXTT9=
EXTT10=
EXTT11=
EXTT12=
EXTT13=
EXTT14=
EXTT15=
EXTT16=
EXTT17=
EXTT18=
PLAYORDER=
